<?xml version="1.0" encoding="UTF-8" standalone="no"?>
<!-- Uploaded to: SVG Repo, www.svgrepo.com, Generator: SVG Repo Mixer Tools -->

<svg
   aria-label="foobar2000"
   role="img"
   viewBox="0 0 512 512"
   version="1.1"
   id="svg4"
   sodipodi:docname="GooBar2K_Logo.svg"
   xml:space="preserve"
   inkscape:version="1.4 (86a8ad7, 2024-10-11)"
   xmlns:inkscape="http://www.inkscape.org/namespaces/inkscape"
   xmlns:sodipodi="http://sodipodi.sourceforge.net/DTD/sodipodi-0.dtd"
   xmlns="http://www.w3.org/2000/svg"
   xmlns:svg="http://www.w3.org/2000/svg"><defs
     id="defs4"><inkscape:path-effect
       effect="mirror_symmetry"
       start_point="256.07877,64.377622"
       end_point="256.07877,478.96884"
       center_point="256.07877,271.67323"
       id="path-effect21"
       is_visible="true"
       lpeversion="1.2"
       lpesatellites=""
       mode="vertical"
       discard_orig_path="false"
       fuse_paths="false"
       oposite_fuse="false"
       split_items="false"
       split_open="false"
       link_styles="false" /><inkscape:path-effect
       effect="mirror_symmetry"
       start_point="200.35718,-14.137697"
       end_point="493.26203,279.27775"
       center_point="346.8096,132.57003"
       id="path-effect20"
       is_visible="true"
       lpeversion="1.2"
       lpesatellites=""
       mode="vertical"
       discard_orig_path="false"
       fuse_paths="false"
       oposite_fuse="false"
       split_items="false"
       split_open="false"
       link_styles="false" /><inkscape:path-effect
       effect="mirror_symmetry"
       start_point="-0.21069958,-256"
       end_point="511.7893,-256"
       center_point="255.7893,-256"
       id="path-effect19"
       is_visible="true"
       lpeversion="1.2"
       lpesatellites=""
       mode="vertical"
       discard_orig_path="false"
       fuse_paths="false"
       oposite_fuse="false"
       split_items="false"
       split_open="false"
       link_styles="false" /><inkscape:path-effect
       effect="mirror_symmetry"
       start_point="256.07877,64.377622"
       end_point="256.07877,478.96884"
       center_point="256.07877,271.67323"
       id="path-effect10"
       is_visible="true"
       lpeversion="1.2"
       lpesatellites=""
       mode="vertical"
       discard_orig_path="false"
       fuse_paths="false"
       oposite_fuse="false"
       split_items="false"
       split_open="false"
       link_styles="false" /><inkscape:path-effect
       effect="mirror_symmetry"
       start_point="272.90116,63.502305"
       end_point="272.90116,478.09352"
       center_point="272.90116,270.79791"
       id="path-effect9"
       is_visible="true"
       lpeversion="1.2"
       lpesatellites=""
       mode="vertical"
       discard_orig_path="false"
       fuse_paths="false"
       oposite_fuse="false"
       split_items="false"
       split_open="false"
       link_styles="false" /><inkscape:path-effect
       effect="mirror_symmetry"
       start_point="256.07877,64.377622"
       end_point="256.07877,478.96884"
       center_point="256.07877,271.67323"
       id="path-effect7"
       is_visible="true"
       lpeversion="1.2"
       lpesatellites=""
       mode="vertical"
       discard_orig_path="false"
       fuse_paths="true"
       oposite_fuse="false"
       split_items="false"
       split_open="false"
       link_styles="false" /><inkscape:path-effect
       effect="mirror_symmetry"
       start_point="256.07877,64.377622"
       end_point="256.07877,478.96884"
       center_point="256.07877,271.67323"
       id="path-effect6"
       is_visible="true"
       lpeversion="1.2"
       lpesatellites=""
       mode="vertical"
       discard_orig_path="false"
       fuse_paths="false"
       oposite_fuse="false"
       split_items="false"
       split_open="false"
       link_styles="false" /><inkscape:path-effect
       effect="mirror_symmetry"
       start_point="448.45213,416.36348"
       end_point="354.41471,-317.42851"
       center_point="401.43342,49.467483"
       id="path-effect20-4"
       is_visible="true"
       lpeversion="1.2"
       lpesatellites=""
       mode="horizontal"
       discard_orig_path="false"
       fuse_paths="false"
       oposite_fuse="false"
       split_items="false"
       split_open="false"
       link_styles="false" /></defs><sodipodi:namedview
     id="namedview4"
     pagecolor="#505050"
     bordercolor="#eeeeee"
     borderopacity="1"
     inkscape:showpageshadow="0"
     inkscape:pageopacity="0"
     inkscape:pagecheckerboard="0"
     inkscape:deskcolor="#505050"
     inkscape:zoom="1.6779975"
     inkscape:cx="347.73591"
     inkscape:cy="298.86814"
     inkscape:window-width="3440"
     inkscape:window-height="1417"
     inkscape:window-x="-8"
     inkscape:window-y="-8"
     inkscape:window-maximized="1"
     inkscape:current-layer="svg4" /><path
     style="opacity:1;fill:#9eecff;fill-opacity:1;stroke:#000000;stroke-width:2.4;stroke-dasharray:none;stroke-opacity:1"
     id="path19"
     inkscape:path-effect="#path-effect20"
     sodipodi:type="arc"
     sodipodi:cx="139.60092"
     sodipodi:cy="107.41971"
     sodipodi:rx="30.542356"
     sodipodi:ry="20.11326"
     d="m 170.14328,107.41971 c 0,11.10825 -13.67428,20.11326 -30.54236,20.11326 -16.86808,0 -30.54235,-9.00501 -30.54235,-20.11326 0,-11.108249 13.67427,-20.113262 30.54235,-20.113262 16.86808,0 30.54236,9.005013 30.54236,20.113262 z M 321.96702,-44.139835 c 11.10823,0.01935 20.13705,-13.639227 20.16643,-30.507279 0.0294,-16.868052 -8.95181,-30.557996 -20.06004,-30.577346 -11.10823,-0.0193 -20.13704,13.639232 -20.16642,30.507284 -0.0294,16.868052 8.9518,30.557994 20.06003,30.577341 z"
     transform="matrix(0.87400264,0.87248172,-0.87248172,0.87400264,68.552416,-162.45159)" /><path
     style="opacity:1;fill:#ac96a5;fill-opacity:1;stroke:#000000;stroke-width:2.4;stroke-dasharray:none;stroke-opacity:1"
     d="M 129.32081,126.04309 C 83.863613,98.229457 121.96274,71.212455 144.66648,107.94116 m 238.17026,18.10193 c 45.45719,-27.813633 7.35807,-54.830635 -15.34567,-18.10193"
     id="path21"
     sodipodi:nodetypes="cc"
     inkscape:path-effect="#path-effect21"
     inkscape:original-d="M 129.32081,126.04309 C 83.863613,98.229457 121.96274,71.212455 144.66648,107.94116"
     transform="matrix(1.2349514,0,0,1.2349514,-60.24484,-79.503235)" /><path
     fill="#ffffff"
     d="M 256.07812,70.664062 C 86.523561,70.2725 42.198411,256.35469 186,408 c 35,37 70,65.5 70,65.5 0.0263,-0.0216 0.0519,-0.0428 0.0781,-0.0645 0.0263,0.0216 0.0538,0.0429 0.0801,0.0645 0,0 35,-28.5 70,-65.5 C 469.95979,256.35469 425.63269,70.2725 256.07812,70.664062 Z"
     id="path1"
     style="opacity:1;fill:#9eecff;fill-opacity:1;stroke:#000000;stroke-width:2.4;stroke-dasharray:none;stroke-opacity:1"
     sodipodi:nodetypes="ccsc"
     inkscape:path-effect="#path-effect7"
     inkscape:original-d="M 256,473.5 C 256,473.5 221,445 186,408 42.170522,256.32528 86.54141,70.199574 256.17744,70.663566 354.70717,70.933067 529.85544,248.21005 256,473.5 Z"
     transform="matrix(1.2349514,0,0,1.2349514,-60.24484,-79.503235)" /><path
     style="opacity:1;fill:#e6e6e6;fill-opacity:1;stroke:#000000;stroke-width:2.4;stroke-dasharray:none;stroke-opacity:1"
     id="path5"
     inkscape:path-effect="#path-effect6"
     sodipodi:type="arc"
     sodipodi:cx="170.7861"
     sodipodi:cy="197.42551"
     sodipodi:rx="50.898037"
     sodipodi:ry="58.785187"
     d="m 221.68414,197.42551 c 0,32.46616 -22.78783,58.78518 -50.89804,58.78518 -28.11021,0 -50.89803,-26.31902 -50.89803,-58.78518 0,-32.46617 22.78782,-58.78519 50.89803,-58.78519 28.11021,0 50.89804,26.31902 50.89804,58.78519 z m 68.78927,0 c 0,32.46616 22.78783,58.78518 50.89803,58.78518 28.11021,0 50.89804,-26.31902 50.89804,-58.78518 0,-32.46617 -22.78783,-58.78519 -50.89804,-58.78519 -28.1102,0 -50.89803,26.31902 -50.89803,58.78519 z"
     transform="matrix(1.2349514,0,0,1.2349514,-60.24484,-79.503235)" /><path
     style="opacity:1;fill:#0b0808;fill-opacity:1;stroke:#000000;stroke-width:2.4;stroke-dasharray:none;stroke-opacity:1"
     id="path9"
     inkscape:path-effect="#path-effect9"
     sodipodi:type="arc"
     sodipodi:cx="165.08313"
     sodipodi:cy="204.16791"
     sodipodi:rx="18.225515"
     sodipodi:ry="18.120165"
     d="m 183.30865,204.16791 c 0,10.00749 -8.15985,18.12016 -18.22552,18.12016 -10.06567,0 -18.22552,-8.11267 -18.22552,-18.12016 0,-10.00749 8.15985,-18.12017 18.22552,-18.12017 10.06567,0 18.22552,8.11268 18.22552,18.12017 z m 179.18503,0 c 0,10.00749 8.15984,18.12016 18.22551,18.12016 10.06567,0 18.22552,-8.11267 18.22552,-18.12016 0,-10.00749 -8.15985,-18.12017 -18.22552,-18.12017 -10.06567,0 -18.22551,8.11268 -18.22551,18.12017 z"
     transform="matrix(1.2349514,0,0,1.2349514,-81.01967,-78.422261)" /><path
     style="opacity:1;fill:#ffffff;fill-opacity:1;stroke:#000000;stroke-width:2.4;stroke-dasharray:none;stroke-opacity:1"
     id="path10"
     inkscape:path-effect="#path-effect10"
     sodipodi:type="arc"
     sodipodi:cx="151.9144"
     sodipodi:cy="197.63622"
     sodipodi:rx="5.6888885"
     sodipodi:ry="5.688889"
     d="m 157.60329,197.63622 c 0,3.14188 -2.54701,5.68888 -5.68889,5.68888 -3.14189,0 -5.68889,-2.547 -5.68889,-5.68888 0,-3.14189 2.547,-5.68889 5.68889,-5.68889 3.14188,0 5.68889,2.547 5.68889,5.68889 z m 196.95097,0 c 0,3.14188 2.547,5.68888 5.68889,5.68888 3.14189,0 5.68889,-2.547 5.68889,-5.68888 0,-3.14189 -2.547,-5.68889 -5.68889,-5.68889 -3.14189,0 -5.68889,2.547 -5.68889,5.68889 z"
     transform="matrix(1.2349514,0,0,1.2349514,-60.24484,-79.503235)" /><rect
     style="fill:#f2edf5;fill-opacity:1;stroke:#000000;stroke-width:2.96388;stroke-dasharray:none;stroke-opacity:1"
     id="rect19-4-8"
     width="42.134243"
     height="21.071999"
     x="270.98126"
     y="-256.86038"
     ry="10.536001"
     inkscape:transform-center-x="-0.76663181"
     inkscape:transform-center-y="27.575942"
     transform="rotate(90)"
     sodipodi:type="rect" /><rect
     style="fill:#f2edf5;fill-opacity:1;stroke:#000000;stroke-width:2.96388;stroke-dasharray:none;stroke-opacity:1"
     id="rect19-4-8-2"
     width="46.530449"
     height="19.743725"
     x="268.50961"
     y="-276.76184"
     ry="9.8718624"
     inkscape:transform-center-x="-0.7182731"
     inkscape:transform-center-y="30.453237"
     transform="rotate(90)"
     sodipodi:type="rect" /><rect
     style="fill:#f7e4c2;fill-opacity:1;stroke:#000000;stroke-width:2.96388;stroke-dasharray:none;stroke-opacity:1"
     id="rect19-4"
     width="70.686371"
     height="45.933506"
     x="220.12166"
     y="231.50975"
     ry="22.966753"
     inkscape:transform-center-x="-46.262668"
     inkscape:transform-center-y="-1.6711579" /><rect
     style="opacity:1;fill:#c4bbb2;fill-opacity:1;stroke:#000000;stroke-width:2.96388;stroke-dasharray:none;stroke-opacity:1"
     id="rect19"
     width="49.478474"
     height="30.343325"
     x="231.48187"
     y="205.59981"
     ry="15.171663" /></svg>
